# xmcd
# 
# Track frame offsets:
#     150
#     20415
#     36447
#     60045
#     77567
#     100160
#     122865
# 
# Disc length: 1851
# 
# Revision: 0
# Processed by: cddbd v1.5.2PL0 Copyright (c) Steve Scherf et al.
# Submitted via: fre:ac v1.0.17
# 
DISCID=4c073907
DTITLE=V.K - Our Story -Best of V.K-
DYEAR=2015
DGENRE=
TTITLE0=My summer love
TTITLE1=Paper Plane’s Adventure (2015 Mix)
TTITLE2=A Promise Not Kept
TTITLE3=Green Jade [feat.Musou Band] (2015 Mix)
TTITLE4=Forest Festival
TTITLE5=Our Story
TTITLE6=Amore Mio [Bonus Track]
EXTD=
EXTT0=
EXTT1=
EXTT2=
EXTT3=
EXTT4=
EXTT5=
EXTT6=
PLAYORDER=
